<?xml version="1.0" standalone="no"?>
<!DOCTYPE svg PUBLIC "-//W3C//DTD SVG 20010904//EN"
 "http://www.w3.org/TR/2001/REC-SVG-20010904/DTD/svg10.dtd">
<svg version="1.0" xmlns="http://www.w3.org/2000/svg"
 width="512.000000pt" height="512.000000pt" viewBox="0 0 512.000000 512.000000"
 preserveAspectRatio="xMidYMid meet">
<metadata>
Created by potrace 1.11, written by Peter Selinger 2001-2013
</metadata>
<g transform="translate(0.000000,512.000000) scale(0.100000,-0.100000)"
fill="#000000" stroke="none">
<path d="M1340 5072 c0 -6 16 -52 36 -103 96 -246 121 -411 76 -509 -30 -67
-107 -172 -192 -260 -62 -64 -152 -190 -171 -238 -42 -109 -34 -250 24 -387
20 -48 93 -174 106 -185 3 -3 19 -23 35 -45 47 -64 190 -201 248 -238 92 -59
148 -68 148 -25 0 25 -22 64 -86 153 -129 180 -174 284 -170 396 3 91 24 137
133 280 116 151 128 168 171 239 52 86 73 151 75 230 2 159 -49 288 -181 453
-83 104 -252 264 -252 239z"/>
<path d="M4045 4532 c-169 -80 -395 -387 -544 -738 -176 -415 -208 -489 -267
-604 -76 -150 -132 -237 -193 -301 -39 -40 -59 -52 -131 -74 -197 -63 -341
-172 -475 -360 -49 -69 -98 -155 -92 -162 6 -5 519 -4 607 2 36 2 112 7 169
10 127 7 225 15 229 20 5 5 3 139 -3 170 -3 17 -10 46 -15 65 -27 103 -16 161
56 304 61 121 257 411 366 540 136 163 274 370 352 529 148 301 183 514 97
591 -30 27 -106 31 -156 8z"/>
<path d="M1994 4419 c-4 -7 -7 -59 -8 -118 -1 -97 -4 -112 -32 -171 -31 -65
-47 -83 -182 -214 -126 -121 -154 -227 -104 -392 58 -189 286 -414 446 -439
71 -12 58 30 -49 160 -123 149 -156 255 -110 353 13 27 54 83 91 123 132 144
181 246 171 355 -7 74 -31 130 -104 241 -65 99 -101 130 -119 102z"/>
<path d="M2397 2894 c-1 -1 -90 -5 -197 -8 -208 -7 -309 -12 -405 -21 -33 -3
-89 -8 -125 -10 -179 -14 -462 -53 -585 -80 -33 -8 -73 -17 -90 -20 -16 -3
-41 -8 -55 -11 -61 -13 -179 -58 -220 -84 -153 -98 -186 -234 -129 -525 6 -27
12 -61 15 -75 6 -33 62 -219 74 -245 5 -11 27 -63 50 -116 152 -356 433 -680
775 -894 155 -98 256 -140 380 -160 108 -17 129 -19 285 -32 189 -15 805 -8
906 11 10 2 44 7 74 10 132 15 226 40 304 81 153 79 201 110 333 212 386 295
658 748 745 1238 11 66 21 160 20 208 0 79 -3 96 -31 152 -64 129 -192 195
-485 249 -45 8 -94 18 -111 21 -35 6 -207 31 -280 39 -27 4 -67 9 -88 12 l-37
5 -35 -73 c-19 -40 -37 -85 -40 -100 -7 -29 -2 -31 105 -43 295 -33 557 -103
628 -168 73 -68 -55 -151 -312 -203 -92 -18 -254 -44 -316 -50 -41 -3 -77 -8
-80 -9 -3 -2 -45 -6 -95 -10 -49 -4 -106 -9 -125 -11 -263 -26 -1085 -26
-1395 1 -27 2 -80 7 -116 10 -37 3 -75 7 -85 9 -11 2 -50 7 -89 11 -38 3 -121
15 -183 26 -273 47 -428 101 -456 159 -17 35 -11 51 32 81 70 50 224 95 442
130 128 20 194 29 255 34 42 4 151 14 225 20 89 9 360 21 520 24 61 1 68 4
110 42 52 46 138 107 195 138 l40 21 -105 1 c-58 0 -136 1 -173 2 -38 1 -69 1
-70 1z"/>
<path d="M4116 1078 l-46 -48 27 -11 c16 -6 51 -19 79 -30 61 -23 152 -77 184
-109 33 -33 50 -87 38 -121 -35 -100 -295 -218 -598 -273 -14 -2 -63 -11 -110
-20 -47 -8 -101 -17 -120 -20 -215 -29 -245 -33 -495 -51 -294 -21 -698 -21
-1025 0 -147 10 -215 15 -250 20 -19 2 -60 7 -90 10 -54 6 -337 49 -395 60
-134 26 -358 96 -440 137 -94 48 -149 103 -160 159 -6 29 20 78 59 112 33 30
192 111 238 123 16 3 28 9 28 13 -1 17 -79 91 -96 91 -49 0 -306 -95 -414
-153 -304 -165 -334 -363 -80 -532 139 -93 422 -200 644 -244 23 -5 75 -16
116 -24 86 -19 121 -25 170 -33 19 -2 46 -7 60 -9 38 -7 93 -15 131 -20 19 -2
75 -8 124 -14 50 -6 122 -13 160 -17 39 -3 86 -7 105 -9 73 -9 412 -19 605
-19 207 0 573 11 584 18 3 2 52 7 108 10 57 4 111 9 120 10 10 2 45 7 78 10
154 16 363 52 539 91 451 101 743 243 821 398 72 145 -13 275 -261 400 -77 39
-207 91 -254 102 -8 2 -42 13 -76 23 l-61 19 -47 -49z"/>
</g>
</svg>
